<svg width="370" height="411" viewBox="0 0 370 411" fill="none" xmlns="http://www.w3.org/2000/svg">
<path fill-rule="evenodd" clip-rule="evenodd" d="M6.25454 297.546C12.5091 308.845 23.975 316.029 46.9068 330.396L135.146 385.681C161.602 402.257 174.831 410.545 189.516 410.373C204.2 410.202 217.232 401.608 243.294 384.419L324.826 330.649C346.822 316.142 357.82 308.889 363.795 297.791C369.77 286.693 369.77 273.518 369.77 247.169V154.961C369.77 126.914 369.77 112.891 363.123 101.322C356.477 89.7544 344.361 82.6921 320.13 68.5675L238.719 21.1114C214.744 7.13569 202.756 0.147864 189.543 0.00231373C176.33 -0.143236 164.191 6.57882 139.914 20.0229L51.5549 68.9537L51.5548 68.9538C26.4166 82.8746 13.8475 89.8351 6.92374 101.584C0 113.332 0 127.7 0 156.435V245.655C0 272.716 0 286.246 6.25454 297.546ZM154.306 238.314L154.306 238.314L169.787 248.089C177.765 253.127 181.754 255.646 186.189 255.594C190.623 255.542 194.552 252.931 202.41 247.707L202.41 247.707L216.433 238.387C222.989 234.029 226.267 231.851 228.047 228.531C229.826 225.211 229.826 221.275 229.826 213.403V197.01C229.826 188.628 229.826 184.437 227.845 180.975C225.864 177.513 222.25 175.39 215.022 171.144L201.036 162.927C193.804 158.678 190.188 156.554 186.197 156.51C182.206 156.465 178.544 158.509 171.22 162.597L171.219 162.597L155.703 171.257C148.202 175.443 144.452 177.536 142.388 181.053C140.323 184.569 140.323 188.864 140.323 197.453V212.948C140.323 221.034 140.323 225.077 142.187 228.457C144.05 231.838 147.469 233.997 154.306 238.314Z" fill="#6A6D70"/>
<path fill-rule="evenodd" clip-rule="evenodd" d="M64.6587 267.878C70.9126 279.177 82.3776 286.361 105.307 300.729L133.838 318.606C160.297 335.185 173.526 343.475 188.212 343.303C202.899 343.132 215.931 334.536 241.995 317.344L266.804 300.981L266.804 300.981C288.799 286.474 299.796 279.221 305.77 268.123C311.745 257.025 311.745 243.852 311.745 217.504V189.352C311.745 161.307 311.745 147.284 305.098 135.717C298.452 124.149 286.338 117.086 262.109 102.961L237.42 88.5682C213.443 74.5899 201.454 67.6008 188.24 67.4553C175.025 67.3097 162.886 74.033 138.607 87.4796L109.956 103.347C84.8192 117.269 72.2511 124.229 65.3279 135.978C58.4047 147.726 58.4047 162.093 58.4047 190.827V215.99C58.4047 243.049 58.4047 256.579 64.6587 267.878ZM154.306 238.314L154.306 238.314L169.787 248.089C177.765 253.127 181.754 255.646 186.188 255.594C190.623 255.542 194.552 252.931 202.41 247.707L202.41 247.707L216.433 238.387C222.989 234.029 226.267 231.851 228.047 228.531C229.826 225.211 229.826 221.275 229.826 213.402V197.01C229.826 188.628 229.826 184.437 227.845 180.975C225.864 177.513 222.25 175.39 215.022 171.144L201.036 162.927C193.804 158.678 190.188 156.554 186.197 156.51C182.206 156.465 178.544 158.509 171.219 162.597L155.703 171.257C148.202 175.443 144.452 177.536 142.388 181.053C140.323 184.569 140.323 188.864 140.323 197.453V212.948C140.323 221.034 140.323 225.077 142.187 228.457C144.05 231.838 147.469 233.997 154.306 238.314Z" fill="#939B9E"/>
<path fill-rule="evenodd" clip-rule="evenodd" d="M117.215 253.397C121.954 258.756 128.355 262.793 141.158 270.866L143.655 272.44C159.213 282.25 166.992 287.156 175.315 289.055C183.022 290.814 191.037 290.72 198.702 288.782C206.978 286.688 214.64 281.602 229.965 271.431C242.795 262.915 249.21 258.657 253.884 253.048C258.219 247.847 261.452 241.821 263.388 235.333C265.476 228.337 265.476 220.637 265.476 205.238V204.238C265.476 187.903 265.476 179.736 263.164 172.399C261.003 165.544 257.39 159.235 252.57 153.902C247.412 148.195 240.367 144.062 226.278 135.797C212.208 127.542 205.173 123.415 197.685 121.696C190.687 120.09 183.426 120.01 176.394 121.461C168.87 123.014 161.745 126.985 147.496 134.926L144.797 136.43C130.761 144.253 123.743 148.164 118.531 153.617C113.17 159.225 109.187 166.004 106.899 173.417C104.673 180.624 104.673 188.659 104.673 204.728C104.673 219.863 104.673 227.431 106.679 234.297C108.743 241.362 112.34 247.884 117.215 253.397ZM142.187 228.457C144.05 231.838 147.469 233.997 154.306 238.314L169.787 248.089C177.765 253.127 181.754 255.646 186.188 255.594C190.623 255.542 194.552 252.931 202.41 247.707L202.41 247.707L216.433 238.387C222.989 234.029 226.267 231.851 228.047 228.531C229.826 225.211 229.826 221.275 229.826 213.403V197.01C229.826 188.628 229.826 184.437 227.845 180.975C225.864 177.513 222.25 175.39 215.022 171.144L201.036 162.927C193.804 158.678 190.188 156.554 186.197 156.51C182.206 156.465 178.544 158.509 171.219 162.597L155.703 171.257C148.202 175.443 144.452 177.536 142.388 181.053C140.323 184.569 140.323 188.864 140.323 197.453V212.948C140.323 221.034 140.323 225.077 142.187 228.457Z" fill="#C3C8D3"/>
</svg>
