<svg width="370" height="407" viewBox="0 0 370 407" fill="none" xmlns="http://www.w3.org/2000/svg">
<path fill-rule="evenodd" clip-rule="evenodd" d="M6.31162 294.427C12.6232 305.766 24.1842 312.934 47.306 327.27L135.557 381.985C161.829 398.273 174.964 406.418 189.52 406.249C204.076 406.079 217.019 397.633 242.905 380.738L324.427 327.534C346.615 313.054 357.709 305.813 363.742 294.673C369.774 283.534 369.774 270.286 369.774 243.791V154.316C369.774 126.127 369.774 112.033 363.07 100.427C356.367 88.8216 344.158 81.7792 319.741 67.6942L238.338 20.7375C214.539 7.00966 202.64 0.145739 189.547 0.00228833C176.454 -0.141163 164.407 6.46042 140.313 19.6636L51.9428 68.0907L51.9428 68.0907C26.621 81.967 13.9601 88.9052 6.98007 100.69C0 112.474 0 126.912 0 155.786V242.279C0 269.485 0 283.087 6.31162 294.427ZM142.205 226.119C144.086 229.512 147.533 231.666 154.427 235.974L169.911 245.65L169.912 245.65C177.834 250.6 181.796 253.075 186.191 253.024C190.587 252.973 194.489 250.406 202.295 245.272L216.314 236.051C222.928 231.701 226.235 229.526 228.032 226.193C229.829 222.86 229.829 218.902 229.829 210.987V195.296C229.829 186.871 229.829 182.658 227.83 179.185C225.832 175.711 222.19 173.594 214.906 169.36L200.923 161.23C193.744 157.057 190.154 154.97 186.199 154.926C182.245 154.883 178.61 156.89 171.341 160.905L155.821 169.477C148.265 173.649 144.487 175.736 142.406 179.263C140.324 182.791 140.324 187.106 140.324 195.738V210.532C140.324 218.662 140.324 222.727 142.205 226.119Z" fill="#2589DB"/>
<path fill-rule="evenodd" clip-rule="evenodd" d="M64.7163 265.068C71.0274 276.407 82.5873 283.575 105.707 297.911L134.25 315.609L134.25 315.61C160.523 331.901 173.66 340.046 188.217 339.877C202.774 339.708 215.718 331.26 241.606 314.363L266.405 298.176C288.592 283.695 299.685 276.454 305.716 265.315C311.748 254.175 311.748 240.929 311.748 214.435V188.349C311.748 160.162 311.748 146.068 305.045 134.463C298.342 122.858 286.134 115.815 261.719 101.73L237.038 87.4917C213.238 73.7613 201.338 66.8962 188.244 66.7527C175.149 66.6092 163.102 73.212 139.006 86.4176L110.344 102.126C85.0242 116.003 72.3643 122.941 65.3848 134.726C58.4053 146.51 58.4053 160.946 58.4053 189.82V212.923C58.4053 240.127 58.4053 253.729 64.7163 265.068ZM142.205 226.119C144.086 229.512 147.533 231.666 154.427 235.974L169.911 245.65L169.912 245.65C177.834 250.6 181.796 253.075 186.191 253.024C190.587 252.973 194.489 250.406 202.295 245.272L216.314 236.051C222.928 231.701 226.235 229.526 228.032 226.193C229.829 222.86 229.829 218.903 229.829 210.987V195.296C229.829 186.871 229.829 182.658 227.83 179.185C225.832 175.711 222.19 173.594 214.906 169.36L200.923 161.23C193.744 157.057 190.154 154.97 186.199 154.926C182.245 154.883 178.61 156.89 171.341 160.905L155.821 169.477C148.265 173.649 144.487 175.736 142.406 179.263C140.324 182.791 140.324 187.106 140.324 195.738V210.533C140.324 218.662 140.324 222.727 142.205 226.119Z" fill="#40DF82"/>
<path fill-rule="evenodd" clip-rule="evenodd" d="M117.744 251.317C122.376 256.392 128.549 260.243 140.895 267.947L143.986 269.876C159.433 279.515 167.157 284.334 175.411 286.202C183.06 287.933 191.009 287.84 198.615 285.932C206.823 283.872 214.466 278.852 229.753 268.811C242.566 260.396 248.972 256.188 253.643 250.669C258.13 245.368 261.463 239.191 263.43 232.531C265.479 225.597 265.479 217.966 265.479 202.705C265.479 186.471 265.479 178.354 263.197 171.063C261.007 164.063 257.304 157.631 252.35 152.222C247.189 146.588 240.143 142.498 226.051 134.316L226.051 134.316C212.034 126.179 205.026 122.11 197.602 120.421C190.66 118.841 183.461 118.762 176.486 120.189C169.026 121.715 161.957 125.614 147.818 133.411L147.818 133.412L144.469 135.259C130.947 142.716 124.187 146.445 119.098 151.597C113.313 157.455 109.064 164.651 106.729 172.546C104.674 179.489 104.674 187.21 104.674 202.652C104.674 217.204 104.674 224.48 106.528 231.097C108.635 238.62 112.477 245.546 117.744 251.317ZM142.205 226.119C144.086 229.512 147.533 231.666 154.427 235.974L169.911 245.65L169.912 245.65C177.834 250.6 181.796 253.075 186.191 253.024C190.587 252.973 194.489 250.406 202.295 245.272L216.314 236.051C222.928 231.701 226.235 229.526 228.032 226.193C229.829 222.86 229.829 218.902 229.829 210.987V195.296C229.829 186.871 229.829 182.658 227.83 179.185C225.832 175.711 222.19 173.594 214.906 169.36L200.923 161.23C193.744 157.057 190.154 154.97 186.199 154.926C182.245 154.883 178.61 156.89 171.341 160.905L155.821 169.477L155.821 169.477C148.265 173.649 144.487 175.736 142.406 179.263C140.324 182.791 140.324 187.106 140.324 195.738V210.532C140.324 218.662 140.324 222.727 142.205 226.119Z" fill="#D29016"/>
</svg>
